<?xml version="1.0" encoding="iso-8859-1"?>
<!-- Uploaded to: SVG Repo, www.svgrepo.com, Generator: SVG Repo Mixer Tools -->
<svg height="800px" width="800px" version="1.1" id="Layer_1" xmlns="http://www.w3.org/2000/svg" xmlns:xlink="http://www.w3.org/1999/xlink" 
	 viewBox="0 0 473.935 473.935" xml:space="preserve">
<circle style="fill:#4ABC96;" cx="236.967" cy="236.967" r="236.967"/>
<path style="fill:#6EC9AB;" d="M236.949,473.935c78.533,0,148.115-38.222,191.232-97.058c-8.011-11.48-39.525-45.025-145.593-70.548
	c0-24.082-2.398-38.507-2.398-38.507s31.293-43.337,33.691-103.513c0-9.568,4.7-77.436-77.013-80.508c0-0.03,0-0.079,0-0.101
	c-0.206,0-0.382,0.045-0.606,0.045c-0.206,0-0.382-0.045-0.591-0.045c0,0.022,0,0.075,0,0.101
	c-81.706,3.068-77.021,70.941-77.021,80.508c2.398,60.175,33.691,103.513,33.691,103.513s-2.417,14.425-2.417,38.507
	C86.664,331.178,54.076,363.627,45.044,375.911C88.104,435.286,157.997,473.935,236.949,473.935z"/>
<circle style="fill:#48A1AF;" cx="332.233" cy="363.515" r="57.062"/>
<path style="fill:#9EDADA;" d="M364.256,353.524h-0.228c-0.513-1.572-1.156-3.091-1.901-4.554l0.161-0.168
	c2.761-2.761,2.586-7.805-0.95-11.334l-2.125-2.155c-3.558-3.536-8.382-3.925-11.349-0.943l-0.153,0.153
	c-1.463-0.745-3.02-1.373-4.576-1.893v-0.221c0-3.903-3.704-7.353-8.688-7.353h-3.042c-5.007,0-8.703,3.121-8.703,7.353v0.221
	c-1.564,0.52-3.098,1.149-4.554,1.893l-0.153-0.153c-2.354-2.331-7.798-2.593-11.349,0.943l-2.133,2.155
	c-3.536,3.529-3.502,8.793-0.965,11.334l0.176,0.168c-0.737,1.463-1.381,2.982-1.893,4.554h-0.236c-3.297,0-7.353,3.689-7.353,8.681
	v3.061c0,4.984,3.779,8.673,7.353,8.673h0.236c0.513,1.587,1.156,3.106,1.893,4.569l-0.176,0.153
	c-2.331,2.339-2.574,7.813,0.965,11.349l2.133,2.155c3.551,3.536,8.812,3.48,11.349,0.943l0.153-0.153
	c1.456,0.737,2.99,1.366,4.554,1.878v0.221c0,3.297,3.697,7.368,8.703,7.368h3.042c4.984,0,8.688-3.764,8.688-7.368v-0.206
	c1.557-0.528,3.113-1.156,4.576-1.893l0.153,0.153c2.761,2.761,7.79,2.586,11.349-0.943l2.125-2.155
	c3.536-3.536,3.94-8.359,0.95-11.349l-0.161-0.153c0.745-1.463,1.388-2.982,1.901-4.569h0.228c3.91,0,7.353-3.689,7.353-8.673
	v-3.061C371.608,357.214,368.473,353.524,364.256,353.524z M332.926,385.03c-11.745,0-21.287-9.523-21.287-21.287
	s9.545-21.302,21.287-21.302c11.753,0,21.287,9.538,21.287,21.302S344.679,385.03,332.926,385.03z"/>
</svg>